<svg width="20" height="19" viewBox="0 0 20 19" fill="none" xmlns="http://www.w3.org/2000/svg">
<g clip-path="url(#clip0_332_94)">
<path d="M11.0001 15V17H15.0001V19H5.00005V17H9.00005V15H0.99205C0.860651 14.9992 0.7307 14.9725 0.609655 14.9214C0.48861 14.8702 0.378853 14.7957 0.286685 14.702C0.194516 14.6084 0.12175 14.4975 0.0725612 14.3756C0.023373 14.2538 -0.0012687 14.1234 5.02834e-05 13.992V1.008C5.02834e-05 0.451 0.45505 0 0.99205 0H19.008C19.556 0 20 0.449 20 1.007V13.992C20 14.549 19.545 15 19.008 15H11.0001Z" fill="#757575"/>
</g>
<defs>
<clipPath id="clip0_332_94">
<rect width="20" height="19" fill="white"/>
</clipPath>
</defs>
</svg>
